<svg xmlns="http://www.w3.org/2000/svg" xmlns:xlink="http://www.w3.org/1999/xlink" width="500" zoomAndPan="magnify" viewBox="0 0 375 374.999991" height="500" preserveAspectRatio="xMidYMid meet" version="1.0"><defs><g/></defs><g fill="#8491a0" fill-opacity="1"><g transform="translate(0.0000045, 30.405368)"><g><path d="M 12.011719 -15.863281 L 5.351562 -15.863281 C 5.179688 -15.863281 4.792969 -15.804688 4.792969 -15.191406 L 4.792969 -13.667969 C 4.792969 -13.074219 5.179688 -13.015625 5.351562 -13.015625 C 5.351562 -13.015625 9.992188 -12.996094 9.992188 -12.976562 L 9.992188 -5.699219 C 9.992188 -5.121094 9.972656 -4.640625 9.894531 -4.253906 C 9.839844 -3.890625 9.742188 -3.601562 9.585938 -3.40625 C 9.453125 -3.195312 9.261719 -3.0625 9.011719 -2.984375 C 8.761719 -2.886719 8.433594 -2.847656 8.027344 -2.847656 L 2.078125 -2.847656 C 1.925781 -2.847656 1.539062 -2.773438 1.539062 -2.175781 L 1.539062 -0.65625 C 1.539062 -0.0585938 1.925781 0.0195312 2.078125 0.0195312 L 8.105469 0.0195312 C 8.953125 0.0195312 9.683594 -0.0976562 10.28125 -0.308594 C 10.878906 -0.519531 11.398438 -0.886719 11.78125 -1.367188 C 12.148438 -1.867188 12.4375 -2.503906 12.609375 -3.273438 C 12.765625 -4.023438 12.859375 -4.949219 12.859375 -6.027344 L 12.859375 -15.191406 C 12.859375 -15.441406 12.746094 -15.863281 12.011719 -15.863281 Z M 12.011719 -15.863281 "/></g></g></g><g fill="#8491a0" fill-opacity="1"><g transform="translate(12.986742, 30.405368)"><g><path d="M 11.859375 -14.074219 C 11.820312 -14.167969 11.78125 -14.285156 11.742188 -14.363281 C 11.4375 -15.363281 10.511719 -16.074219 9.453125 -16.074219 C 8.972656 -16.074219 8.507812 -15.941406 8.125 -15.671875 C 8.007812 -15.613281 7.914062 -15.535156 7.835938 -15.480469 C 7.546875 -15.230469 7.257812 -14.765625 6.988281 -14.074219 L 1.617188 -0.730469 C 1.558594 -0.558594 1.539062 -0.386719 1.578125 -0.269531 C 1.597656 -0.152344 1.695312 0.0195312 2.003906 0.0195312 L 4.121094 0.0195312 C 4.371094 0.0195312 4.5625 -0.136719 4.660156 -0.386719 L 5.757812 -3.136719 L 9.972656 -3.136719 C 10.183594 -3.136719 10.378906 -3.234375 10.472656 -3.40625 C 10.589844 -3.5625 10.609375 -3.773438 10.550781 -3.964844 L 9.855469 -5.679688 C 9.761719 -5.910156 9.550781 -6.066406 9.300781 -6.066406 L 6.910156 -6.066406 L 9.375 -12.300781 C 9.394531 -12.339844 9.414062 -12.359375 9.414062 -12.359375 L 9.492188 -12.359375 C 9.492188 -12.359375 9.492188 -12.359375 9.511719 -12.320312 L 14.285156 -0.40625 C 14.382812 -0.136719 14.574219 0.0195312 14.84375 0.0195312 L 16.902344 0.0195312 C 17.210938 0.0195312 17.289062 -0.171875 17.328125 -0.269531 C 17.367188 -0.386719 17.347656 -0.558594 17.269531 -0.730469 Z M 11.859375 -14.074219 "/></g></g></g><g fill="#8491a0" fill-opacity="1"><g transform="translate(30.476145, 30.405368)"><g><path d="M 10.839844 -9.472656 L 5.0625 -9.472656 C 4.773438 -9.472656 4.410156 -9.585938 4.410156 -10.53125 L 4.410156 -11.957031 C 4.410156 -12.300781 4.464844 -12.570312 4.5625 -12.765625 C 4.640625 -12.878906 4.753906 -13.015625 5.082031 -13.015625 L 12.917969 -13.015625 C 13.074219 -13.015625 13.457031 -13.074219 13.457031 -13.667969 L 13.457031 -15.210938 C 13.457031 -15.804688 13.074219 -15.863281 12.917969 -15.863281 L 4.621094 -15.863281 C 3.5625 -15.863281 2.792969 -15.515625 2.292969 -14.804688 C 1.789062 -14.113281 1.539062 -13.1875 1.539062 -12.070312 L 1.539062 -10.609375 C 1.539062 -9.28125 1.808594 -8.203125 2.292969 -7.527344 C 2.886719 -6.738281 3.773438 -6.621094 4.582031 -6.621094 L 10.359375 -6.621094 C 10.648438 -6.621094 11.03125 -6.507812 11.03125 -5.5625 L 11.03125 -3.910156 C 11.03125 -3.5625 10.972656 -3.292969 10.859375 -3.101562 C 10.78125 -2.984375 10.664062 -2.847656 10.339844 -2.847656 L 2.117188 -2.847656 C 1.945312 -2.847656 1.558594 -2.792969 1.558594 -2.195312 L 1.558594 -0.65625 C 1.558594 -0.0585938 1.945312 0 2.117188 0 L 10.800781 0 C 11.859375 0 12.648438 -0.367188 13.148438 -1.078125 C 13.628906 -1.769531 13.882812 -2.675781 13.882812 -3.792969 L 13.882812 -5.488281 C 13.882812 -6.738281 13.628906 -7.71875 13.128906 -8.414062 C 12.609375 -9.105469 11.839844 -9.472656 10.839844 -9.472656 Z M 10.839844 -9.472656 "/></g></g></g><g fill="#8491a0" fill-opacity="1"><g transform="translate(44.482723, 30.405368)"><g><path d="M 10.839844 -9.472656 L 5.0625 -9.472656 C 4.773438 -9.472656 4.410156 -9.585938 4.410156 -10.53125 L 4.410156 -11.957031 C 4.410156 -12.300781 4.464844 -12.570312 4.5625 -12.765625 C 4.640625 -12.878906 4.753906 -13.015625 5.082031 -13.015625 L 12.917969 -13.015625 C 13.074219 -13.015625 13.457031 -13.074219 13.457031 -13.667969 L 13.457031 -15.210938 C 13.457031 -15.804688 13.074219 -15.863281 12.917969 -15.863281 L 4.621094 -15.863281 C 3.5625 -15.863281 2.792969 -15.515625 2.292969 -14.804688 C 1.789062 -14.113281 1.539062 -13.1875 1.539062 -12.070312 L 1.539062 -10.609375 C 1.539062 -9.28125 1.808594 -8.203125 2.292969 -7.527344 C 2.886719 -6.738281 3.773438 -6.621094 4.582031 -6.621094 L 10.359375 -6.621094 C 10.648438 -6.621094 11.03125 -6.507812 11.03125 -5.5625 L 11.03125 -3.910156 C 11.03125 -3.5625 10.972656 -3.292969 10.859375 -3.101562 C 10.78125 -2.984375 10.664062 -2.847656 10.339844 -2.847656 L 2.117188 -2.847656 C 1.945312 -2.847656 1.558594 -2.792969 1.558594 -2.195312 L 1.558594 -0.65625 C 1.558594 -0.0585938 1.945312 0 2.117188 0 L 10.800781 0 C 11.859375 0 12.648438 -0.367188 13.148438 -1.078125 C 13.628906 -1.769531 13.882812 -2.675781 13.882812 -3.792969 L 13.882812 -5.488281 C 13.882812 -6.738281 13.628906 -7.71875 13.128906 -8.414062 C 12.609375 -9.105469 11.839844 -9.472656 10.839844 -9.472656 Z M 10.839844 -9.472656 "/></g></g></g><g fill="#8491a0" fill-opacity="1"><g transform="translate(58.4893, 30.405368)"><g><path d="M 17.617188 -15.863281 L 15.882812 -15.863281 C 15.613281 -15.863281 15.402344 -15.84375 15.210938 -15.785156 C 15.015625 -15.730469 14.84375 -15.632812 14.691406 -15.5 C 14.554688 -15.34375 14.421875 -15.171875 14.304688 -14.941406 C 14.1875 -14.707031 14.09375 -14.421875 13.976562 -14.054688 L 10.570312 -5.542969 C 10.550781 -5.46875 10.53125 -5.46875 10.511719 -5.46875 L 10.320312 -5.46875 C 10.320312 -5.46875 10.28125 -5.46875 10.261719 -5.542969 L 6.875 -14.054688 C 6.757812 -14.421875 6.640625 -14.707031 6.546875 -14.941406 C 6.429688 -15.171875 6.296875 -15.34375 6.160156 -15.5 C 6.007812 -15.632812 5.8125 -15.730469 5.621094 -15.785156 C 5.429688 -15.84375 5.199219 -15.863281 4.949219 -15.863281 L 3.175781 -15.863281 C 2.523438 -15.863281 2.078125 -15.652344 1.847656 -15.246094 C 1.636719 -14.882812 1.539062 -14.265625 1.539062 -13.378906 L 1.539062 -0.65625 C 1.539062 -0.0585938 1.925781 0.0195312 2.097656 0.0195312 L 3.753906 0.0195312 C 3.925781 0.0195312 4.292969 -0.0585938 4.292969 -0.65625 L 4.292969 -12.226562 C 4.292969 -12.246094 4.292969 -12.265625 4.292969 -12.265625 L 4.390625 -12.265625 C 4.410156 -12.265625 4.429688 -12.265625 4.449219 -12.207031 L 7.738281 -4.0625 C 7.875 -3.65625 8.007812 -3.3125 8.144531 -3.023438 C 8.296875 -2.734375 8.453125 -2.503906 8.605469 -2.308594 C 8.796875 -2.117188 8.992188 -1.964844 9.222656 -1.886719 C 9.453125 -1.808594 9.703125 -1.769531 9.992188 -1.769531 L 10.78125 -1.769531 C 11.070312 -1.769531 11.339844 -1.808594 11.550781 -1.886719 C 11.78125 -1.964844 11.996094 -2.117188 12.167969 -2.308594 C 12.320312 -2.503906 12.496094 -2.734375 12.628906 -3.023438 C 12.765625 -3.3125 12.898438 -3.65625 13.035156 -4.0625 L 16.34375 -12.226562 C 16.34375 -12.265625 16.363281 -12.265625 16.382812 -12.265625 L 16.480469 -12.265625 C 16.480469 -12.265625 16.480469 -12.246094 16.480469 -12.226562 L 16.480469 -0.65625 C 16.480469 -0.0585938 16.863281 0.0195312 17.019531 0.0195312 L 18.675781 0.0195312 C 18.847656 0.0195312 19.234375 -0.0585938 19.234375 -0.65625 L 19.234375 -13.378906 C 19.234375 -14.265625 19.136719 -14.882812 18.925781 -15.246094 C 18.695312 -15.652344 18.25 -15.863281 17.617188 -15.863281 Z M 17.617188 -15.863281 "/></g></g></g><g fill="#8491a0" fill-opacity="1"><g transform="translate(77.845201, 30.405368)"><g><path d="M 14.652344 -14.457031 C 14.265625 -14.941406 13.765625 -15.304688 13.148438 -15.535156 C 12.550781 -15.75 11.820312 -15.863281 10.972656 -15.863281 L 6.277344 -15.863281 C 5.429688 -15.863281 4.71875 -15.75 4.121094 -15.535156 C 3.503906 -15.304688 3.003906 -14.941406 2.617188 -14.457031 C 2.253906 -13.976562 1.964844 -13.34375 1.789062 -12.570312 C 1.617188 -11.820312 1.539062 -10.917969 1.539062 -9.839844 L 1.539062 -6.027344 C 1.539062 -4.949219 1.617188 -4.023438 1.789062 -3.273438 C 1.964844 -2.503906 2.253906 -1.867188 2.617188 -1.386719 C 3.003906 -0.886719 3.503906 -0.519531 4.121094 -0.308594 C 4.699219 -0.0976562 5.429688 0.0195312 6.277344 0.0195312 L 10.972656 0.0195312 C 11.820312 0.0195312 12.550781 -0.0976562 13.148438 -0.308594 C 13.765625 -0.519531 14.265625 -0.886719 14.652344 -1.367188 C 15.035156 -1.867188 15.304688 -2.503906 15.480469 -3.273438 C 15.632812 -4.023438 15.730469 -4.949219 15.730469 -6.027344 L 15.730469 -9.839844 C 15.730469 -10.898438 15.632812 -11.820312 15.480469 -12.570312 C 15.304688 -13.34375 15.035156 -13.976562 14.652344 -14.457031 Z M 12.859375 -10.164062 L 12.859375 -5.679688 C 12.859375 -5.121094 12.839844 -4.640625 12.765625 -4.253906 C 12.707031 -3.910156 12.589844 -3.601562 12.4375 -3.40625 C 12.300781 -3.195312 12.109375 -3.0625 11.859375 -2.984375 C 11.609375 -2.886719 11.28125 -2.847656 10.878906 -2.847656 L 6.371094 -2.847656 C 5.96875 -2.847656 5.640625 -2.886719 5.390625 -2.984375 C 5.140625 -3.0625 4.949219 -3.195312 4.8125 -3.40625 C 4.660156 -3.601562 4.5625 -3.910156 4.484375 -4.253906 C 4.429688 -4.640625 4.390625 -5.121094 4.390625 -5.679688 L 4.390625 -10.164062 C 4.390625 -10.722656 4.429688 -11.203125 4.484375 -11.589844 C 4.5625 -11.957031 4.660156 -12.246094 4.8125 -12.457031 C 4.949219 -12.648438 5.140625 -12.785156 5.390625 -12.878906 C 5.640625 -12.957031 5.96875 -13.015625 6.371094 -13.015625 L 10.878906 -13.015625 C 11.28125 -13.015625 11.609375 -12.957031 11.859375 -12.878906 C 12.109375 -12.785156 12.300781 -12.648438 12.4375 -12.457031 C 12.589844 -12.246094 12.707031 -11.957031 12.765625 -11.589844 C 12.839844 -11.203125 12.859375 -10.722656 12.859375 -10.164062 Z M 12.859375 -10.164062 "/></g></g></g><g fill="#a3533e" fill-opacity="1"><g transform="translate(93.703123, 30.405368)"><g><path d="M 15.171875 -15.863281 L 13.457031 -15.863281 C 13.285156 -15.863281 12.917969 -15.804688 12.917969 -15.191406 L 12.917969 -3.621094 C 12.917969 -3.601562 12.917969 -3.601562 12.917969 -3.582031 L 12.820312 -3.582031 C 12.804688 -3.582031 12.785156 -3.582031 12.765625 -3.640625 L 6.679688 -14.457031 C 6.527344 -14.746094 6.390625 -14.976562 6.257812 -15.152344 C 6.121094 -15.34375 5.988281 -15.5 5.851562 -15.59375 C 5.699219 -15.710938 5.527344 -15.785156 5.3125 -15.824219 C 5.121094 -15.84375 4.890625 -15.863281 4.640625 -15.863281 L 3.195312 -15.863281 C 2.636719 -15.863281 2.214844 -15.671875 1.945312 -15.324219 C 1.675781 -14.960938 1.539062 -14.324219 1.539062 -13.378906 L 1.539062 -0.65625 C 1.539062 -0.0585938 1.925781 0.0195312 2.097656 0.0195312 L 3.8125 0.0195312 C 3.984375 0.0195312 4.351562 -0.0585938 4.351562 -0.65625 L 4.351562 -12.226562 C 4.351562 -12.246094 4.351562 -12.265625 4.351562 -12.265625 L 4.449219 -12.265625 C 4.449219 -12.265625 4.464844 -12.265625 4.503906 -12.207031 L 10.609375 -1.386719 C 10.761719 -1.078125 10.917969 -0.847656 11.050781 -0.675781 C 11.1875 -0.480469 11.320312 -0.347656 11.472656 -0.25 C 11.628906 -0.136719 11.800781 -0.078125 11.996094 -0.0390625 C 12.167969 0 12.378906 0.0195312 12.648438 0.0195312 L 14.054688 0.0195312 C 14.613281 0.0195312 15.035156 -0.171875 15.304688 -0.539062 C 15.574219 -0.886719 15.710938 -1.519531 15.710938 -2.464844 L 15.710938 -15.191406 C 15.710938 -15.804688 15.324219 -15.863281 15.171875 -15.863281 Z M 15.171875 -15.863281 "/></g></g></g><g fill="#a3533e" fill-opacity="1"><g transform="translate(96.923259, 30.405368)"><g><path d="M 15.171875 -15.863281 L 13.457031 -15.863281 C 13.285156 -15.863281 12.917969 -15.804688 12.917969 -15.191406 L 12.917969 -3.621094 C 12.917969 -3.601562 12.917969 -3.601562 12.917969 -3.582031 L 12.820312 -3.582031 C 12.804688 -3.582031 12.785156 -3.582031 12.765625 -3.640625 L 6.679688 -14.457031 C 6.527344 -14.746094 6.390625 -14.976562 6.257812 -15.152344 C 6.121094 -15.34375 5.988281 -15.5 5.851562 -15.59375 C 5.699219 -15.710938 5.527344 -15.785156 5.3125 -15.824219 C 5.121094 -15.84375 4.890625 -15.863281 4.640625 -15.863281 L 3.195312 -15.863281 C 2.636719 -15.863281 2.214844 -15.671875 1.945312 -15.324219 C 1.675781 -14.960938 1.539062 -14.324219 1.539062 -13.378906 L 1.539062 -0.65625 C 1.539062 -0.0585938 1.925781 0.0195312 2.097656 0.0195312 L 3.8125 0.0195312 C 3.984375 0.0195312 4.351562 -0.0585938 4.351562 -0.65625 L 4.351562 -12.226562 C 4.351562 -12.246094 4.351562 -12.265625 4.351562 -12.265625 L 4.449219 -12.265625 C 4.449219 -12.265625 4.464844 -12.265625 4.503906 -12.207031 L 10.609375 -1.386719 C 10.761719 -1.078125 10.917969 -0.847656 11.050781 -0.675781 C 11.1875 -0.480469 11.320312 -0.347656 11.472656 -0.25 C 11.628906 -0.136719 11.800781 -0.078125 11.996094 -0.0390625 C 12.167969 0 12.378906 0.0195312 12.648438 0.0195312 L 14.054688 0.0195312 C 14.613281 0.0195312 15.035156 -0.171875 15.304688 -0.539062 C 15.574219 -0.886719 15.710938 -1.519531 15.710938 -2.464844 L 15.710938 -15.191406 C 15.710938 -15.804688 15.324219 -15.863281 15.171875 -15.863281 Z M 15.171875 -15.863281 "/></g></g></g><g fill="#8491a0" fill-opacity="1"><g transform="translate(112.767008, 30.405368)"><g><path d="M 13.109375 -3.445312 L 6.335938 -3.445312 C 5.929688 -3.445312 5.601562 -3.503906 5.332031 -3.582031 C 5.082031 -3.675781 4.910156 -3.8125 4.753906 -4.003906 C 4.601562 -4.214844 4.484375 -4.503906 4.429688 -4.871094 C 4.410156 -4.96875 4.410156 -5.101562 4.390625 -5.199219 C 4.390625 -5.199219 4.410156 -6.585938 4.429688 -6.585938 L 13.035156 -6.585938 C 13.1875 -6.585938 13.574219 -6.660156 13.574219 -7.257812 L 13.574219 -8.777344 C 13.574219 -9.375 13.1875 -9.433594 13.035156 -9.433594 L 3.101562 -9.414062 C 2.542969 -9.375 2.058594 -9.085938 1.789062 -8.605469 C 1.695312 -8.453125 1.617188 -8.296875 1.578125 -8.125 L 1.539062 -5.699219 L 1.539062 -5.601562 C 1.558594 -4.699219 1.65625 -3.925781 1.789062 -3.292969 C 1.964844 -2.523438 2.253906 -1.886719 2.617188 -1.40625 C 3.003906 -0.90625 3.503906 -0.558594 4.121094 -0.347656 C 4.71875 -0.117188 5.429688 -0.0195312 6.277344 -0.0195312 L 13.109375 -0.0195312 C 13.285156 -0.0195312 13.667969 -0.078125 13.667969 -0.675781 L 13.667969 -2.792969 C 13.667969 -3.386719 13.285156 -3.445312 13.109375 -3.445312 Z M 13.128906 -15.902344 L 2.058594 -15.902344 C 1.90625 -15.902344 1.539062 -15.824219 1.539062 -15.210938 L 1.539062 -13.707031 C 1.539062 -13.109375 1.90625 -13.054688 2.058594 -13.054688 L 13.128906 -13.035156 C 13.285156 -13.035156 13.667969 -13.109375 13.667969 -13.707031 L 13.667969 -15.230469 C 13.667969 -15.824219 13.285156 -15.902344 13.128906 -15.902344 Z M 13.128906 -15.902344 "/></g></g></g><g fill="#8491a0" fill-opacity="1"><g transform="translate(126.561915, 30.405368)"><g><path d="M 12.648438 -2.847656 L 6.390625 -2.847656 C 5.988281 -2.847656 5.660156 -2.886719 5.390625 -2.984375 C 5.160156 -3.0625 4.96875 -3.195312 4.832031 -3.40625 C 4.679688 -3.621094 4.5625 -3.910156 4.503906 -4.253906 C 4.429688 -4.640625 4.410156 -5.121094 4.410156 -5.699219 L 4.410156 -15.191406 C 4.410156 -15.804688 4.023438 -15.863281 3.871094 -15.863281 L 2.097656 -15.863281 C 1.925781 -15.863281 1.539062 -15.804688 1.539062 -15.191406 L 1.539062 -6.027344 C 1.539062 -4.949219 1.636719 -4.023438 1.808594 -3.273438 C 1.984375 -2.503906 2.253906 -1.867188 2.636719 -1.386719 C 3.023438 -0.886719 3.523438 -0.519531 4.140625 -0.308594 C 4.71875 -0.0976562 5.449219 0.0195312 6.296875 0.0195312 L 12.648438 0.0195312 C 12.820312 0.0195312 13.1875 -0.0585938 13.1875 -0.65625 L 13.1875 -2.175781 C 13.1875 -2.773438 12.820312 -2.847656 12.648438 -2.847656 Z M 12.648438 -2.847656 "/></g></g></g><g fill="#8491a0" fill-opacity="1"><g transform="translate(139.87577, 30.405368)"><g><path d="M 12.648438 -2.847656 L 6.390625 -2.847656 C 5.988281 -2.847656 5.660156 -2.886719 5.390625 -2.984375 C 5.160156 -3.0625 4.96875 -3.195312 4.832031 -3.40625 C 4.679688 -3.621094 4.5625 -3.910156 4.503906 -4.253906 C 4.429688 -4.640625 4.410156 -5.121094 4.410156 -5.699219 L 4.410156 -15.191406 C 4.410156 -15.804688 4.023438 -15.863281 3.871094 -15.863281 L 2.097656 -15.863281 C 1.925781 -15.863281 1.539062 -15.804688 1.539062 -15.191406 L 1.539062 -6.027344 C 1.539062 -4.949219 1.636719 -4.023438 1.808594 -3.273438 C 1.984375 -2.503906 2.253906 -1.867188 2.636719 -1.386719 C 3.023438 -0.886719 3.523438 -0.519531 4.140625 -0.308594 C 4.71875 -0.0976562 5.449219 0.0195312 6.296875 0.0195312 L 12.648438 0.0195312 C 12.820312 0.0195312 13.1875 -0.0585938 13.1875 -0.65625 L 13.1875 -2.175781 C 13.1875 -2.773438 12.820312 -2.847656 12.648438 -2.847656 Z M 12.648438 -2.847656 "/></g></g></g><g fill="#8491a0" fill-opacity="1"><g transform="translate(153.189625, 30.405368)"><g><path d="M 11.859375 -14.074219 C 11.820312 -14.167969 11.78125 -14.285156 11.742188 -14.363281 C 11.4375 -15.363281 10.511719 -16.074219 9.453125 -16.074219 C 8.972656 -16.074219 8.507812 -15.941406 8.125 -15.671875 C 8.007812 -15.613281 7.914062 -15.535156 7.835938 -15.480469 C 7.546875 -15.230469 7.257812 -14.765625 6.988281 -14.074219 L 1.617188 -0.730469 C 1.558594 -0.558594 1.539062 -0.386719 1.578125 -0.269531 C 1.597656 -0.152344 1.695312 0.0195312 2.003906 0.0195312 L 4.121094 0.0195312 C 4.371094 0.0195312 4.5625 -0.136719 4.660156 -0.386719 L 5.757812 -3.136719 L 9.972656 -3.136719 C 10.183594 -3.136719 10.378906 -3.234375 10.472656 -3.40625 C 10.589844 -3.5625 10.609375 -3.773438 10.550781 -3.964844 L 9.855469 -5.679688 C 9.761719 -5.910156 9.550781 -6.066406 9.300781 -6.066406 L 6.910156 -6.066406 L 9.375 -12.300781 C 9.394531 -12.339844 9.414062 -12.359375 9.414062 -12.359375 L 9.492188 -12.359375 C 9.492188 -12.359375 9.492188 -12.359375 9.511719 -12.320312 L 14.285156 -0.40625 C 14.382812 -0.136719 14.574219 0.0195312 14.84375 0.0195312 L 16.902344 0.0195312 C 17.210938 0.0195312 17.289062 -0.171875 17.328125 -0.269531 C 17.367188 -0.386719 17.347656 -0.558594 17.269531 -0.730469 Z M 11.859375 -14.074219 "/></g></g></g></svg>