<svg xmlns="http://www.w3.org/2000/svg" xmlns:xlink="http://www.w3.org/1999/xlink" width="500" zoomAndPan="magnify" viewBox="0 0 375 374.999991" height="500" preserveAspectRatio="xMidYMid meet" version="1.0"><defs><g/></defs><g fill="#375b5f" fill-opacity="1"><g transform="translate(0.0000045, 14.358505)"><g><path d="M 10.765625 -14.214844 L 4.796875 -14.214844 C 4.640625 -14.214844 4.296875 -14.164062 4.296875 -13.613281 L 4.296875 -12.25 C 4.296875 -11.714844 4.640625 -11.664062 4.796875 -11.664062 C 4.796875 -11.664062 8.953125 -11.644531 8.953125 -11.628906 L 8.953125 -5.105469 C 8.953125 -4.589844 8.9375 -4.15625 8.867188 -3.8125 C 8.816406 -3.484375 8.730469 -3.226562 8.59375 -3.054688 C 8.472656 -2.863281 8.296875 -2.742188 8.074219 -2.675781 C 7.851562 -2.589844 7.558594 -2.554688 7.195312 -2.554688 L 1.863281 -2.554688 C 1.726562 -2.554688 1.378906 -2.484375 1.378906 -1.949219 L 1.378906 -0.585938 C 1.378906 -0.0507812 1.726562 0.015625 1.863281 0.015625 L 7.261719 0.015625 C 8.023438 0.015625 8.679688 -0.0859375 9.214844 -0.277344 C 9.746094 -0.464844 10.214844 -0.792969 10.558594 -1.226562 C 10.886719 -1.671875 11.144531 -2.242188 11.300781 -2.933594 C 11.4375 -3.605469 11.523438 -4.433594 11.523438 -5.398438 L 11.523438 -13.613281 C 11.523438 -13.835938 11.421875 -14.214844 10.765625 -14.214844 Z M 10.765625 -14.214844 "/></g></g></g><g fill="#375b5f" fill-opacity="1"><g transform="translate(11.643193, 14.358505)"><g><path d="M 10.628906 -12.613281 C 10.59375 -12.699219 10.558594 -12.800781 10.523438 -12.871094 C 10.25 -13.769531 9.421875 -14.40625 8.472656 -14.40625 C 8.039062 -14.40625 7.625 -14.285156 7.28125 -14.042969 C 7.175781 -13.992188 7.089844 -13.921875 7.023438 -13.871094 C 6.761719 -13.648438 6.503906 -13.234375 6.261719 -12.613281 L 1.449219 -0.65625 C 1.398438 -0.5 1.378906 -0.34375 1.414062 -0.242188 C 1.433594 -0.136719 1.519531 0.015625 1.792969 0.015625 L 3.691406 0.015625 C 3.917969 0.015625 4.089844 -0.121094 4.175781 -0.34375 L 5.160156 -2.8125 L 8.9375 -2.8125 C 9.125 -2.8125 9.300781 -2.898438 9.386719 -3.054688 C 9.488281 -3.191406 9.507812 -3.382812 9.453125 -3.554688 L 8.832031 -5.089844 C 8.746094 -5.296875 8.558594 -5.433594 8.332031 -5.433594 L 6.195312 -5.433594 L 8.402344 -11.023438 C 8.417969 -11.058594 8.4375 -11.078125 8.4375 -11.078125 L 8.503906 -11.078125 C 8.503906 -11.078125 8.503906 -11.078125 8.523438 -11.042969 L 12.800781 -0.363281 C 12.886719 -0.121094 13.058594 0.015625 13.300781 0.015625 L 15.148438 0.015625 C 15.425781 0.015625 15.492188 -0.15625 15.527344 -0.242188 C 15.5625 -0.34375 15.546875 -0.5 15.476562 -0.65625 Z M 10.628906 -12.613281 "/></g></g></g><g fill="#375b5f" fill-opacity="1"><g transform="translate(27.322939, 14.358505)"><g><path d="M 9.714844 -8.488281 L 4.539062 -8.488281 C 4.277344 -8.488281 3.949219 -8.59375 3.949219 -9.4375 L 3.949219 -10.714844 C 3.949219 -11.023438 4.003906 -11.265625 4.089844 -11.4375 C 4.15625 -11.542969 4.261719 -11.664062 4.554688 -11.664062 L 11.578125 -11.664062 C 11.714844 -11.664062 12.058594 -11.714844 12.058594 -12.25 L 12.058594 -13.628906 C 12.058594 -14.164062 11.714844 -14.214844 11.578125 -14.214844 L 4.140625 -14.214844 C 3.191406 -14.214844 2.5 -13.90625 2.054688 -13.265625 C 1.605469 -12.644531 1.378906 -11.816406 1.378906 -10.816406 L 1.378906 -9.507812 C 1.378906 -8.316406 1.621094 -7.351562 2.054688 -6.746094 C 2.589844 -6.039062 3.382812 -5.933594 4.105469 -5.933594 L 9.28125 -5.933594 C 9.539062 -5.933594 9.886719 -5.832031 9.886719 -4.984375 L 9.886719 -3.503906 C 9.886719 -3.191406 9.835938 -2.949219 9.730469 -2.777344 C 9.660156 -2.675781 9.558594 -2.554688 9.265625 -2.554688 L 1.898438 -2.554688 C 1.742188 -2.554688 1.398438 -2.5 1.398438 -1.96875 L 1.398438 -0.585938 C 1.398438 -0.0507812 1.742188 0 1.898438 0 L 9.679688 0 C 10.628906 0 11.335938 -0.328125 11.785156 -0.964844 C 12.214844 -1.585938 12.4375 -2.398438 12.4375 -3.398438 L 12.4375 -4.917969 C 12.4375 -6.039062 12.214844 -6.917969 11.765625 -7.539062 C 11.300781 -8.160156 10.609375 -8.488281 9.714844 -8.488281 Z M 9.714844 -8.488281 "/></g></g></g><g fill="#375b5f" fill-opacity="1"><g transform="translate(39.880385, 14.358505)"><g><path d="M 9.714844 -8.488281 L 4.539062 -8.488281 C 4.277344 -8.488281 3.949219 -8.59375 3.949219 -9.4375 L 3.949219 -10.714844 C 3.949219 -11.023438 4.003906 -11.265625 4.089844 -11.4375 C 4.15625 -11.542969 4.261719 -11.664062 4.554688 -11.664062 L 11.578125 -11.664062 C 11.714844 -11.664062 12.058594 -11.714844 12.058594 -12.25 L 12.058594 -13.628906 C 12.058594 -14.164062 11.714844 -14.214844 11.578125 -14.214844 L 4.140625 -14.214844 C 3.191406 -14.214844 2.5 -13.90625 2.054688 -13.265625 C 1.605469 -12.644531 1.378906 -11.816406 1.378906 -10.816406 L 1.378906 -9.507812 C 1.378906 -8.316406 1.621094 -7.351562 2.054688 -6.746094 C 2.589844 -6.039062 3.382812 -5.933594 4.105469 -5.933594 L 9.28125 -5.933594 C 9.539062 -5.933594 9.886719 -5.832031 9.886719 -4.984375 L 9.886719 -3.503906 C 9.886719 -3.191406 9.835938 -2.949219 9.730469 -2.777344 C 9.660156 -2.675781 9.558594 -2.554688 9.265625 -2.554688 L 1.898438 -2.554688 C 1.742188 -2.554688 1.398438 -2.5 1.398438 -1.96875 L 1.398438 -0.585938 C 1.398438 -0.0507812 1.742188 0 1.898438 0 L 9.679688 0 C 10.628906 0 11.335938 -0.328125 11.785156 -0.964844 C 12.214844 -1.585938 12.4375 -2.398438 12.4375 -3.398438 L 12.4375 -4.917969 C 12.4375 -6.039062 12.214844 -6.917969 11.765625 -7.539062 C 11.300781 -8.160156 10.609375 -8.488281 9.714844 -8.488281 Z M 9.714844 -8.488281 "/></g></g></g><g fill="#375b5f" fill-opacity="1"><g transform="translate(52.437835, 14.358505)"><g><path d="M 15.785156 -14.214844 L 14.234375 -14.214844 C 13.992188 -14.214844 13.800781 -14.199219 13.628906 -14.148438 C 13.457031 -14.09375 13.300781 -14.007812 13.164062 -13.886719 C 13.042969 -13.75 12.921875 -13.59375 12.820312 -13.386719 C 12.714844 -13.179688 12.628906 -12.921875 12.527344 -12.59375 L 9.472656 -4.96875 C 9.453125 -4.898438 9.4375 -4.898438 9.421875 -4.898438 L 9.246094 -4.898438 C 9.246094 -4.898438 9.214844 -4.898438 9.195312 -4.96875 L 6.160156 -12.59375 C 6.054688 -12.921875 5.953125 -13.179688 5.867188 -13.386719 C 5.761719 -13.59375 5.640625 -13.75 5.519531 -13.886719 C 5.382812 -14.007812 5.210938 -14.09375 5.039062 -14.148438 C 4.867188 -14.199219 4.660156 -14.214844 4.433594 -14.214844 L 2.847656 -14.214844 C 2.261719 -14.214844 1.863281 -14.027344 1.65625 -13.664062 C 1.464844 -13.335938 1.378906 -12.785156 1.378906 -11.992188 L 1.378906 -0.585938 C 1.378906 -0.0507812 1.726562 0.015625 1.878906 0.015625 L 3.363281 0.015625 C 3.519531 0.015625 3.847656 -0.0507812 3.847656 -0.585938 L 3.847656 -10.957031 C 3.847656 -10.972656 3.847656 -10.988281 3.847656 -10.988281 L 3.933594 -10.988281 C 3.949219 -10.988281 3.96875 -10.988281 3.984375 -10.9375 L 6.9375 -3.640625 C 7.054688 -3.277344 7.175781 -2.96875 7.296875 -2.707031 C 7.4375 -2.449219 7.574219 -2.242188 7.710938 -2.070312 C 7.882812 -1.898438 8.058594 -1.761719 8.265625 -1.691406 C 8.472656 -1.621094 8.695312 -1.585938 8.953125 -1.585938 L 9.660156 -1.585938 C 9.921875 -1.585938 10.160156 -1.621094 10.351562 -1.691406 C 10.558594 -1.761719 10.75 -1.898438 10.902344 -2.070312 C 11.042969 -2.242188 11.195312 -2.449219 11.316406 -2.707031 C 11.4375 -2.96875 11.558594 -3.277344 11.679688 -3.640625 L 14.648438 -10.957031 C 14.648438 -10.988281 14.664062 -10.988281 14.683594 -10.988281 L 14.769531 -10.988281 C 14.769531 -10.988281 14.769531 -10.972656 14.769531 -10.957031 L 14.769531 -0.585938 C 14.769531 -0.0507812 15.113281 0.015625 15.25 0.015625 L 16.734375 0.015625 C 16.890625 0.015625 17.234375 -0.0507812 17.234375 -0.585938 L 17.234375 -11.992188 C 17.234375 -12.785156 17.148438 -13.335938 16.960938 -13.664062 C 16.753906 -14.027344 16.355469 -14.214844 15.785156 -14.214844 Z M 15.785156 -14.214844 "/></g></g></g><g fill="#375b5f" fill-opacity="1"><g transform="translate(69.790856, 14.358505)"><g><path d="M 13.128906 -12.957031 C 12.785156 -13.386719 12.335938 -13.714844 11.785156 -13.921875 C 11.25 -14.113281 10.59375 -14.214844 9.835938 -14.214844 L 5.625 -14.214844 C 4.867188 -14.214844 4.226562 -14.113281 3.691406 -13.921875 C 3.140625 -13.714844 2.691406 -13.386719 2.347656 -12.957031 C 2.019531 -12.527344 1.761719 -11.957031 1.605469 -11.265625 C 1.449219 -10.59375 1.378906 -9.78125 1.378906 -8.816406 L 1.378906 -5.398438 C 1.378906 -4.433594 1.449219 -3.605469 1.605469 -2.933594 C 1.761719 -2.242188 2.019531 -1.671875 2.347656 -1.242188 C 2.691406 -0.792969 3.140625 -0.464844 3.691406 -0.277344 C 4.210938 -0.0859375 4.867188 0.015625 5.625 0.015625 L 9.835938 0.015625 C 10.59375 0.015625 11.25 -0.0859375 11.785156 -0.277344 C 12.335938 -0.464844 12.785156 -0.792969 13.128906 -1.226562 C 13.472656 -1.671875 13.714844 -2.242188 13.871094 -2.933594 C 14.007812 -3.605469 14.09375 -4.433594 14.09375 -5.398438 L 14.09375 -8.816406 C 14.09375 -9.765625 14.007812 -10.59375 13.871094 -11.265625 C 13.714844 -11.957031 13.472656 -12.527344 13.128906 -12.957031 Z M 11.523438 -9.109375 L 11.523438 -5.089844 C 11.523438 -4.589844 11.507812 -4.15625 11.4375 -3.8125 C 11.386719 -3.503906 11.285156 -3.226562 11.144531 -3.054688 C 11.023438 -2.863281 10.851562 -2.742188 10.628906 -2.675781 C 10.402344 -2.589844 10.109375 -2.554688 9.746094 -2.554688 L 5.710938 -2.554688 C 5.347656 -2.554688 5.054688 -2.589844 4.832031 -2.675781 C 4.605469 -2.742188 4.433594 -2.863281 4.3125 -3.054688 C 4.175781 -3.226562 4.089844 -3.503906 4.019531 -3.8125 C 3.96875 -4.15625 3.933594 -4.589844 3.933594 -5.089844 L 3.933594 -9.109375 C 3.933594 -9.609375 3.96875 -10.042969 4.019531 -10.386719 C 4.089844 -10.714844 4.175781 -10.972656 4.3125 -11.164062 C 4.433594 -11.335938 4.605469 -11.457031 4.832031 -11.542969 C 5.054688 -11.609375 5.347656 -11.664062 5.710938 -11.664062 L 9.746094 -11.664062 C 10.109375 -11.664062 10.402344 -11.609375 10.628906 -11.542969 C 10.851562 -11.457031 11.023438 -11.335938 11.144531 -11.164062 C 11.285156 -10.972656 11.386719 -10.714844 11.4375 -10.386719 C 11.507812 -10.042969 11.523438 -9.609375 11.523438 -9.109375 Z M 11.523438 -9.109375 "/></g></g></g><g fill="#375b5f" fill-opacity="1"><g transform="translate(84.00433, 14.358505)"><g><path d="M 13.59375 -14.214844 L 12.058594 -14.214844 C 11.90625 -14.214844 11.578125 -14.164062 11.578125 -13.613281 L 11.578125 -3.242188 C 11.578125 -3.226562 11.578125 -3.226562 11.578125 -3.210938 L 11.492188 -3.210938 C 11.472656 -3.210938 11.457031 -3.210938 11.4375 -3.261719 L 5.988281 -12.957031 C 5.847656 -13.214844 5.726562 -13.421875 5.605469 -13.578125 C 5.488281 -13.75 5.367188 -13.886719 5.246094 -13.976562 C 5.105469 -14.078125 4.953125 -14.148438 4.761719 -14.183594 C 4.589844 -14.199219 4.382812 -14.214844 4.15625 -14.214844 L 2.863281 -14.214844 C 2.363281 -14.214844 1.984375 -14.042969 1.742188 -13.734375 C 1.5 -13.40625 1.378906 -12.835938 1.378906 -11.992188 L 1.378906 -0.585938 C 1.378906 -0.0507812 1.726562 0.015625 1.878906 0.015625 L 3.417969 0.015625 C 3.570312 0.015625 3.898438 -0.0507812 3.898438 -0.585938 L 3.898438 -10.957031 C 3.898438 -10.972656 3.898438 -10.988281 3.898438 -10.988281 L 3.984375 -10.988281 C 3.984375 -10.988281 4.003906 -10.988281 4.039062 -10.9375 L 9.507812 -1.242188 C 9.644531 -0.964844 9.78125 -0.757812 9.902344 -0.605469 C 10.023438 -0.429688 10.144531 -0.3125 10.28125 -0.222656 C 10.421875 -0.121094 10.574219 -0.0703125 10.75 -0.0351562 C 10.902344 0 11.09375 0.015625 11.335938 0.015625 L 12.59375 0.015625 C 13.09375 0.015625 13.472656 -0.15625 13.714844 -0.484375 C 13.957031 -0.792969 14.078125 -1.363281 14.078125 -2.207031 L 14.078125 -13.613281 C 14.078125 -14.164062 13.734375 -14.214844 13.59375 -14.214844 Z M 13.59375 -14.214844 "/></g></g></g><g fill="#ffffff" fill-opacity="1"><g transform="translate(0.0000045, 36.85725)"><g><path d="M 10.628906 -12.613281 C 10.59375 -12.699219 10.558594 -12.800781 10.523438 -12.871094 C 10.25 -13.769531 9.421875 -14.40625 8.472656 -14.40625 C 8.039062 -14.40625 7.625 -14.285156 7.28125 -14.042969 C 7.175781 -13.992188 7.089844 -13.921875 7.023438 -13.871094 C 6.761719 -13.648438 6.503906 -13.234375 6.261719 -12.613281 L 1.449219 -0.65625 C 1.398438 -0.5 1.378906 -0.34375 1.414062 -0.242188 C 1.433594 -0.136719 1.519531 0.015625 1.792969 0.015625 L 3.691406 0.015625 C 3.917969 0.015625 4.089844 -0.121094 4.175781 -0.34375 L 5.160156 -2.8125 L 8.9375 -2.8125 C 9.125 -2.8125 9.300781 -2.898438 9.386719 -3.054688 C 9.488281 -3.191406 9.507812 -3.382812 9.453125 -3.554688 L 8.832031 -5.089844 C 8.746094 -5.296875 8.558594 -5.433594 8.332031 -5.433594 L 6.195312 -5.433594 L 8.402344 -11.023438 C 8.417969 -11.058594 8.4375 -11.078125 8.4375 -11.078125 L 8.503906 -11.078125 C 8.503906 -11.078125 8.503906 -11.078125 8.523438 -11.042969 L 12.800781 -0.363281 C 12.886719 -0.121094 13.058594 0.015625 13.300781 0.015625 L 15.148438 0.015625 C 15.425781 0.015625 15.492188 -0.15625 15.527344 -0.242188 C 15.5625 -0.34375 15.546875 -0.5 15.476562 -0.65625 Z M 10.628906 -12.613281 "/></g></g></g><g fill="#ffffff" fill-opacity="1"><g transform="translate(15.679751, 36.85725)"><g><path d="M 11.335938 -2.554688 L 5.726562 -2.554688 C 5.367188 -2.554688 5.074219 -2.589844 4.832031 -2.675781 C 4.625 -2.742188 4.453125 -2.863281 4.332031 -3.054688 C 4.191406 -3.242188 4.089844 -3.503906 4.039062 -3.8125 C 3.96875 -4.15625 3.949219 -4.589844 3.949219 -5.105469 L 3.949219 -13.613281 C 3.949219 -14.164062 3.605469 -14.214844 3.46875 -14.214844 L 1.878906 -14.214844 C 1.726562 -14.214844 1.378906 -14.164062 1.378906 -13.613281 L 1.378906 -5.398438 C 1.378906 -4.433594 1.464844 -3.605469 1.621094 -2.933594 C 1.777344 -2.242188 2.019531 -1.671875 2.363281 -1.242188 C 2.707031 -0.792969 3.15625 -0.464844 3.710938 -0.277344 C 4.226562 -0.0859375 4.882812 0.015625 5.640625 0.015625 L 11.335938 0.015625 C 11.492188 0.015625 11.816406 -0.0507812 11.816406 -0.585938 L 11.816406 -1.949219 C 11.816406 -2.484375 11.492188 -2.554688 11.335938 -2.554688 Z M 11.335938 -2.554688 "/></g></g></g><g fill="#ffffff" fill-opacity="1"><g transform="translate(27.616192, 36.85725)"><g><path d="M 11.335938 -2.554688 L 5.726562 -2.554688 C 5.367188 -2.554688 5.074219 -2.589844 4.832031 -2.675781 C 4.625 -2.742188 4.453125 -2.863281 4.332031 -3.054688 C 4.191406 -3.242188 4.089844 -3.503906 4.039062 -3.8125 C 3.96875 -4.15625 3.949219 -4.589844 3.949219 -5.105469 L 3.949219 -13.613281 C 3.949219 -14.164062 3.605469 -14.214844 3.46875 -14.214844 L 1.878906 -14.214844 C 1.726562 -14.214844 1.378906 -14.164062 1.378906 -13.613281 L 1.378906 -5.398438 C 1.378906 -4.433594 1.464844 -3.605469 1.621094 -2.933594 C 1.777344 -2.242188 2.019531 -1.671875 2.363281 -1.242188 C 2.707031 -0.792969 3.15625 -0.464844 3.710938 -0.277344 C 4.226562 -0.0859375 4.882812 0.015625 5.640625 0.015625 L 11.335938 0.015625 C 11.492188 0.015625 11.816406 -0.0507812 11.816406 -0.585938 L 11.816406 -1.949219 C 11.816406 -2.484375 11.492188 -2.554688 11.335938 -2.554688 Z M 11.335938 -2.554688 "/></g></g></g><g fill="#ffffff" fill-opacity="1"><g transform="translate(39.552633, 36.85725)"><g><path d="M 11.75 -3.089844 L 5.675781 -3.089844 C 5.3125 -3.089844 5.019531 -3.140625 4.777344 -3.210938 C 4.554688 -3.296875 4.398438 -3.417969 4.261719 -3.589844 C 4.125 -3.777344 4.019531 -4.039062 3.96875 -4.363281 C 3.949219 -4.453125 3.949219 -4.570312 3.933594 -4.660156 C 3.933594 -4.660156 3.949219 -5.902344 3.96875 -5.902344 L 11.679688 -5.902344 C 11.816406 -5.902344 12.164062 -5.96875 12.164062 -6.503906 L 12.164062 -7.867188 C 12.164062 -8.402344 11.816406 -8.453125 11.679688 -8.453125 L 2.777344 -8.4375 C 2.277344 -8.402344 1.847656 -8.144531 1.605469 -7.710938 C 1.519531 -7.574219 1.449219 -7.4375 1.414062 -7.28125 L 1.378906 -5.105469 L 1.378906 -5.019531 C 1.398438 -4.210938 1.484375 -3.519531 1.605469 -2.949219 C 1.761719 -2.261719 2.019531 -1.691406 2.347656 -1.257812 C 2.691406 -0.8125 3.140625 -0.5 3.691406 -0.3125 C 4.226562 -0.105469 4.867188 -0.015625 5.625 -0.015625 L 11.75 -0.015625 C 11.90625 -0.015625 12.25 -0.0703125 12.25 -0.605469 L 12.25 -2.5 C 12.25 -3.035156 11.90625 -3.089844 11.75 -3.089844 Z M 11.765625 -14.25 L 1.847656 -14.25 C 1.707031 -14.25 1.378906 -14.183594 1.378906 -13.628906 L 1.378906 -12.285156 C 1.378906 -11.75 1.707031 -11.699219 1.847656 -11.699219 L 11.765625 -11.679688 C 11.90625 -11.679688 12.25 -11.75 12.25 -12.285156 L 12.25 -13.648438 C 12.25 -14.183594 11.90625 -14.25 11.765625 -14.25 Z M 11.765625 -14.25 "/></g></g></g><g fill="#ffffff" fill-opacity="1"><g transform="translate(51.920332, 36.85725)"><g><path d="M 13.59375 -14.214844 L 12.058594 -14.214844 C 11.90625 -14.214844 11.578125 -14.164062 11.578125 -13.613281 L 11.578125 -3.242188 C 11.578125 -3.226562 11.578125 -3.226562 11.578125 -3.210938 L 11.492188 -3.210938 C 11.472656 -3.210938 11.457031 -3.210938 11.4375 -3.261719 L 5.988281 -12.957031 C 5.847656 -13.214844 5.726562 -13.421875 5.605469 -13.578125 C 5.488281 -13.75 5.367188 -13.886719 5.246094 -13.976562 C 5.105469 -14.078125 4.953125 -14.148438 4.761719 -14.183594 C 4.589844 -14.199219 4.382812 -14.214844 4.15625 -14.214844 L 2.863281 -14.214844 C 2.363281 -14.214844 1.984375 -14.042969 1.742188 -13.734375 C 1.5 -13.40625 1.378906 -12.835938 1.378906 -11.992188 L 1.378906 -0.585938 C 1.378906 -0.0507812 1.726562 0.015625 1.878906 0.015625 L 3.417969 0.015625 C 3.570312 0.015625 3.898438 -0.0507812 3.898438 -0.585938 L 3.898438 -10.957031 C 3.898438 -10.972656 3.898438 -10.988281 3.898438 -10.988281 L 3.984375 -10.988281 C 3.984375 -10.988281 4.003906 -10.988281 4.039062 -10.9375 L 9.507812 -1.242188 C 9.644531 -0.964844 9.78125 -0.757812 9.902344 -0.605469 C 10.023438 -0.429688 10.144531 -0.3125 10.28125 -0.222656 C 10.421875 -0.121094 10.574219 -0.0703125 10.75 -0.0351562 C 10.902344 0 11.09375 0.015625 11.335938 0.015625 L 12.59375 0.015625 C 13.09375 0.015625 13.472656 -0.15625 13.714844 -0.484375 C 13.957031 -0.792969 14.078125 -1.363281 14.078125 -2.207031 L 14.078125 -13.613281 C 14.078125 -14.164062 13.734375 -14.214844 13.59375 -14.214844 Z M 13.59375 -14.214844 "/></g></g></g></svg>